<svg width="28" height="28" viewBox="0 0 28 28" version="1.1" xmlns="http://www.w3.org/2000/svg" xmlns:xlink="http://www.w3.org/1999/xlink">
<g id="Canvas" fill="none">
<g id="Instagram gray">
<path d="M 18.144 14C 18.144 16.2887 16.2887 18.144 14 18.144C 11.7113 18.144 9.85593 16.2887 9.85593 14C 9.85593 11.7113 11.7113 9.85593 14 9.85593C 16.2887 9.85593 18.144 11.7113 18.144 14Z" fill="#ABBDD3"/>
<path d="M 18.144 14C 18.144 16.2887 16.2887 18.144 14 18.144C 11.7113 18.144 9.85593 16.2887 9.85593 14C 9.85593 11.7113 11.7113 9.85593 14 9.85593C 16.2887 9.85593 18.144 11.7113 18.144 14Z" fill="#ABBDD3"/>
<path d="M 18.144 14C 18.144 16.2887 16.2887 18.144 14 18.144C 11.7113 18.144 9.85593 16.2887 9.85593 14C 9.85593 11.7113 11.7113 9.85593 14 9.85593C 16.2887 9.85593 18.144 11.7113 18.144 14Z" fill="#ABBDD3"/>
<path fill-rule="evenodd" clip-rule="evenodd" d="M 0 11.1104C 0 7.22142 0 5.27692 0.756866 3.79149C 1.42262 2.48486 2.48486 1.42262 3.79149 0.756866C 5.27692 0 7.22142 0 11.1104 0L 16.8896 0C 20.7786 0 22.7231 0 24.2085 0.756866C 25.5151 1.42262 26.5774 2.48486 27.2431 3.79149C 28 5.27692 28 7.22142 28 11.1104L 28 16.8896C 28 20.7787 28 22.7231 27.2431 24.2084C 26.5774 25.5151 25.5151 26.5775 24.2085 27.2431C 22.7231 28 20.7786 28 16.8896 28L 11.1104 28C 7.22142 28 5.27692 28 3.79149 27.2431C 2.48486 26.5775 1.42262 25.5151 0.756866 24.2084C 0 22.7231 0 20.7787 0 16.8896L 0 11.1104ZM 24.1921 5.71196C 24.1921 6.76352 23.3396 7.61598 22.288 7.61598C 21.2365 7.61598 20.384 6.76352 20.384 5.71196C 20.384 4.6604 21.2365 3.80794 22.288 3.80794C 23.3396 3.80794 24.1921 4.6604 24.1921 5.71196ZM 14 21.728C 18.2681 21.728 21.7279 18.2681 21.7279 14C 21.7279 9.73192 18.2681 6.27197 14 6.27197C 9.73192 6.27197 6.27197 9.73192 6.27197 14C 6.27197 18.2681 9.73192 21.728 14 21.728Z" fill="#ABBDD3"/>
<path fill-rule="evenodd" clip-rule="evenodd" d="M 0 11.1104C 0 7.22142 0 5.27692 0.756866 3.79149C 1.42262 2.48486 2.48486 1.42262 3.79149 0.756866C 5.27692 0 7.22142 0 11.1104 0L 16.8896 0C 20.7786 0 22.7231 0 24.2085 0.756866C 25.5151 1.42262 26.5774 2.48486 27.2431 3.79149C 28 5.27692 28 7.22142 28 11.1104L 28 16.8896C 28 20.7787 28 22.7231 27.2431 24.2084C 26.5774 25.5151 25.5151 26.5775 24.2085 27.2431C 22.7231 28 20.7786 28 16.8896 28L 11.1104 28C 7.22142 28 5.27692 28 3.79149 27.2431C 2.48486 26.5775 1.42262 25.5151 0.756866 24.2084C 0 22.7231 0 20.7787 0 16.8896L 0 11.1104ZM 24.1921 5.71196C 24.1921 6.76352 23.3396 7.61598 22.288 7.61598C 21.2365 7.61598 20.384 6.76352 20.384 5.71196C 20.384 4.6604 21.2365 3.80794 22.288 3.80794C 23.3396 3.80794 24.1921 4.6604 24.1921 5.71196ZM 14 21.728C 18.2681 21.728 21.7279 18.2681 21.7279 14C 21.7279 9.73192 18.2681 6.27197 14 6.27197C 9.73192 6.27197 6.27197 9.73192 6.27197 14C 6.27197 18.2681 9.73192 21.728 14 21.728Z" fill="#ABBDD3"/>
<path fill-rule="evenodd" clip-rule="evenodd" d="M 0 11.1104C 0 7.22142 0 5.27692 0.756866 3.79149C 1.42262 2.48486 2.48486 1.42262 3.79149 0.756866C 5.27692 0 7.22142 0 11.1104 0L 16.8896 0C 20.7786 0 22.7231 0 24.2085 0.756866C 25.5151 1.42262 26.5774 2.48486 27.2431 3.79149C 28 5.27692 28 7.22142 28 11.1104L 28 16.8896C 28 20.7787 28 22.7231 27.2431 24.2084C 26.5774 25.5151 25.5151 26.5775 24.2085 27.2431C 22.7231 28 20.7786 28 16.8896 28L 11.1104 28C 7.22142 28 5.27692 28 3.79149 27.2431C 2.48486 26.5775 1.42262 25.5151 0.756866 24.2084C 0 22.7231 0 20.7787 0 16.8896L 0 11.1104ZM 24.1921 5.71196C 24.1921 6.76352 23.3396 7.61598 22.288 7.61598C 21.2365 7.61598 20.384 6.76352 20.384 5.71196C 20.384 4.6604 21.2365 3.80794 22.288 3.80794C 23.3396 3.80794 24.1921 4.6604 24.1921 5.71196ZM 14 21.728C 18.2681 21.728 21.7279 18.2681 21.7279 14C 21.7279 9.73192 18.2681 6.27197 14 6.27197C 9.73192 6.27197 6.27197 9.73192 6.27197 14C 6.27197 18.2681 9.73192 21.728 14 21.728Z" fill="#ABBDD3"/>
</g>
</g>
<defs>

<radialGradient id="paint0_radial" cx="0.5" cy="0.5" r="0.5" gradientUnits="userSpaceOnUse" gradientTransform="matrix(29.792 54.656 -103.065 56.1787 45.3723 -54.7454)">
<stop stop-color="#ABBDD3"/>
<stop offset="0.373321" stop-color="#ABBDD3"/>
<stop offset="1" stop-color="white" stop-opacity="0"/>
</radialGradient>
<radialGradient id="paint1_radial" cx="0.5" cy="0.5" r="0.5" gradientUnits="userSpaceOnUse" gradientTransform="matrix(22.96 -31.808 52.159 37.65 -32.7995 25.079)">
<stop stop-color="#ABBDD3"/>
<stop offset="0.270718" stop-color="#ABBDD3"/>
<stop offset="0.548131" stop-color="#ABBDD3"/>
<stop offset="1" stop-color="#ABBDD3" stop-opacity="0"/>
</radialGradient>
<radialGradient id="paint2_radial" cx="0.5" cy="0.5" r="0.5" gradientUnits="userSpaceOnUse" gradientTransform="matrix(29.792 54.656 -103.065 56.1787 45.3723 -54.7454)">
<stop stop-color="#ABBDD3"/>
<stop offset="0.373321" stop-color="#ABBDD3"/>
<stop offset="1" stop-color="white" stop-opacity="0"/>
</radialGradient>
<radialGradient id="paint3_radial" cx="0.5" cy="0.5" r="0.5" gradientUnits="userSpaceOnUse" gradientTransform="matrix(22.96 -31.808 52.159 37.65 -32.7995 25.079)">
<stop stop-color="#ABBDD3"/>
<stop offset="0.270718" stop-color="#ABBDD3"/>
<stop offset="0.548131" stop-color="#ABBDD3"/>
<stop offset="1" stop-color="#ABBDD3" stop-opacity="0"/>
</radialGradient>

</defs>
</svg>
