<svg height="28" viewBox="0 0 28 28" width="28" xmlns="http://www.w3.org/2000/svg"><g fill="#abbdd3"><path d="m11.8854 9.18566c0 1.16494.9401 2.10944 2.0991 2.10944 1.1589 0 2.0983-.9445 2.0983-2.10944s-.9394-2.10937-2.0983-2.10937c-1.159 0-2.0991.94443-2.0991 2.10937z"/><path clip-rule="evenodd" d="m23.9235 28c2.2517 0 4.0765-1.8344 4.0765-4.0973v-19.80536c0-2.26282-1.8248-4.09734-4.0765-4.09734h-19.84703c-2.25166 0-4.07647 1.83443-4.07647 4.09734v19.80536c0 2.2629 1.82481 4.0973 4.07647 4.0973zm-15.01563-18.81439c0-2.81814 2.27233-5.10277 5.07663-5.10277 2.8035 0 5.0766 2.28463 5.0766 5.10277 0 2.81819-2.2731 5.10299-5.0766 5.10299-2.8043 0-5.07663-2.2848-5.07663-5.10299zm10.18353 7.72759c-.0642.0519-1.2826 1.0193-3.3146 1.4354l3.0674 3.0562c.5401.5414.5408 1.4199.002 1.9621-.5387.5422-1.4124.5431-1.9525.0016l-2.9783-2.9153-2.7055 2.8965c-.2707.2824-.6319.4244-.9932.4244-.34532 0-.69066-.129-.95796-.3886-.5491-.5319-.56499-1.4103-.03592-1.9619l2.91198-3.0588c-2.0894-.4064-3.35747-1.399-3.42309-1.4516-.59469-.4794-.69-1.3527-.21342-1.9505.47726-.5978 1.34616-.6938 1.94081-.2145.0125.0102 1.3393 1.0118 3.4763 1.0133 2.137-.0015 3.4362-1.0031 3.4486-1.0133.5954-.4793 1.4636-.3833 1.9409.2145.4765.5978.3812 1.4711-.2135 1.9505z" fill-rule="evenodd"/></g></svg>