<svg height="23" viewBox="0 0 30 23" width="30" xmlns="http://www.w3.org/2000/svg"><path d="m30 1.43971c-.059.67213-.2774 1.38341-.4422 2.10266-1.3746 5.95634-2.7545 11.91193-4.1399 17.86683-.0793.3426-.1653.6852-.3662.9923-.3299.5034-.8076.6892-1.4329.5575-.3939-.0823-.7363-.2508-1.0597-.4713-2.0836-1.4138-4.1759-2.8193-6.2536-4.2415-.2643-.1813-.4161-.161-.6388.0416-1.0247.9314-2.0697 1.8439-3.0972 2.7727-.3924.3545-.8259.5662-1.3961.5477-.4034-.013-.6341-.1638-.7573-.5155-.64236-1.8362-1.29582-3.6695-1.9465-5.5035-.22072-.6225-.45373-1.2413-.66019-1.8678-.0745-.2258-.20171-.3407-.45096-.4107-2.03923-.5728-4.07371-1.1601-6.10977-1.7401-.268673-.0769-.537744-.1541-.777886-.2922-.580939-.3343-.627302-.7813-.122052-1.2044.345551-.28998.766398-.46181 1.197148-.61408 2.77656-.981 5.55352-1.9614 8.33088-2.94119 5.99563-2.11475 11.99143-4.22949 17.98733-6.344243.0475-.016676.0943-.036253.1422-.052204 1.1267-.383193 1.9862.155524 1.9937 1.317427zm-18.8127 18.41859c.1089-.0475.099-.1145.1046-.1678.1367-1.3381.2774-2.6758.3986-4.0154.0297-.3328.1423-.58.4252-.8128 3.9081-3.2103 7.8098-6.42737 11.7052-9.65121.2465-.20374.4953-.40531.7363-.61448.0994-.08629.2298-.18562.1529-.32845-.0792-.14937-.2532-.1432-.4065-.12689-.2996.03154-.5548.16568-.8053.31032-4.8081 2.77625-9.619 5.55011-14.4327 8.32151-.27383.1573-.31108.3012-.2132.5688.59442 1.6288 1.1734 3.2627 1.7567 4.8941.1922.5398.384 1.0789.5782 1.6223z" fill="#fff"/></svg>