<svg height="22" viewBox="0 0 28 22" width="28" xmlns="http://www.w3.org/2000/svg"><path d="m28 2.60295c-1.0306.44171-2.1363.74127-3.2982.87501 1.1863-.68715 2.0944-1.77706 2.5248-3.071787-1.1128.636347-2.3411 1.098407-3.6498 1.348887-1.0481-1.081455-2.5388-1.75505992-4.1923-1.75505992-3.1721 0-5.7441 2.48787992-5.7441 5.55457992 0 .43494.0507.85974.1487 1.26596-4.77309-.2319-9.00553-2.4439-11.83825-5.80511-.49517.81916-.77686 1.77365-.77686 2.79254 0 1.9277 1.01482 3.6286 2.55455 4.62371-.94135-.03044-1.82669-.28093-2.60177-.69728v.06939c0 2.69101 1.98064 4.93681 4.60688 5.44801-.48117.1252-.98856.1946-1.51347.1946-.37091 0-.7296-.0355-1.08129-.1033.73134 2.2087 2.85197 3.8148 5.36452 3.8588-1.9649 1.4894-4.44244 2.3745-7.13342 2.3745-.463649 0-.920342-.0271-1.36999-.0761 2.54229 1.579 5.56048 2.4997 8.80437 2.4997 10.56623 0 16.34193-8.4656 16.34193-15.80735l-.0192-.71928c1.1285-.77858 2.1048-1.75679 2.8729-2.87042z" fill="#fff"/></svg>