<svg height="18" viewBox="0 0 30 18" width="30" xmlns="http://www.w3.org/2000/svg"><path clip-rule="evenodd" d="m29.3093 1.20789c.211-.710522 0-1.20789-.9848-1.20789h-3.2827c-.8441 0-1.2192.45-1.4303.947368 0 0-1.6647 4.121052-4.0329 6.773682-.7738.78158-1.102 1.01842-1.5241 1.01842-.211 0-.5158-.23684-.5158-.94736v-6.58422c0-.852627-.2345-1.20789-.9379-1.20789h-5.1585c-.5158 0-.8441.402632-.8441.757895 0 .805265 1.1724.994735 1.3131 3.221055v4.87894c0 1.0658-.1876 1.25531-.6096 1.25531-1.1021 0-3.82197-4.12109-5.4164-8.85794-.32826-.876313-.63308-1.25526-1.47719-1.25526h-3.28263c-.937901 0-1.12548.45-1.12548.947368 0 .876312 1.10203 5.234212 5.18188 10.989432 2.7199 3.9316 6.54182 6.0632 10.01202 6.0632 2.0868 0 2.3448-.4737 2.3448-1.2789v-2.9843c0-.9473.1875-1.1368.8675-1.1368.4924 0 1.3131.2368 3.2592 2.1316 2.2275 2.25 2.6027 3.2684 3.8454 3.2684h3.2826c.9379 0 1.4069-.4737 1.1255-1.3974-.3048-.9237-1.3599-2.2737-2.7668-3.8842-.7738-.9237-1.9227-1.8947-2.2509-2.3921-.4924-.63946-.3518-.92367 0-1.46841 0-.02368 4.0095-5.70789 4.4081-7.65z" fill="#5e98dc" fill-rule="evenodd"/></svg>