<svg height="24" viewBox="0 0 32 24" width="32" xmlns="http://www.w3.org/2000/svg"><path clip-rule="evenodd" d="m28.5207.734375c1.3708.395085 2.451 1.552455 2.8208 3.020645.6854 2.68248.6584 8.27348.6584 8.27348s0 5.5619-.6584 8.2444c-.3698 1.4682-1.45 2.6261-2.8208 3.0212-2.5042.7059-12.5208.7059-12.5208.7059s-9.98951 0-12.52075-.7344c-1.37083-.3951-2.45103-1.5524-2.819778-3.0206-.659372-2.6546-.659372-8.245-.659372-8.245s0-5.5625.659372-8.24498c.368748-1.46819 1.476038-2.65402 2.819778-3.049105 2.50416-.705915 12.52075-.705915 12.52075-.705915s10.0166 0 12.5208.734375zm-7.3823 11.265025-8.3291 5.139v-10.27791z" fill="#abbdd3" fill-rule="evenodd"/></svg>